<svg xmlns="http://www.w3.org/2000/svg" viewBox="0 -0.5 64 64" shape-rendering="crispEdges">
<metadata>Made with Pixels to Svg https://codepen.io/shshaw/pen/XbxvNj</metadata>
<path stroke="#7e74e1" d="M32 4h3M29 5h3M28 6h2M27 7h1M23 8h1M26 8h2M23 9h4M24 10h3M26 11h2M26 12h2M27 13h1M52 13h1M27 14h1M53 14h2M27 15h1M54 15h1M26 16h2M54 16h2M26 17h2M55 17h2M25 18h3M55 18h3M25 19h2M56 19h2M24 20h2M57 20h1M15 21h5M22 21h3M57 21h1M15 22h1M18 22h5M57 22h2M14 23h1M57 23h2M12 24h2M57 24h2M11 25h2M56 25h4M10 26h2M55 26h3M59 26h1M9 27h2M54 27h3M59 27h1M8 28h2M51 28h6M59 28h1M7 29h2M49 29h8M59 29h1M6 30h1M46 30h7M54 30h3M58 30h2M5 31h2M44 31h8M55 31h4M4 32h2M40 32h9M51 32h2M56 32h3M4 33h1M38 33h11M51 33h2M56 33h2M3 34h1M35 34h14M51 34h2M32 35h16M52 35h1M3 36h1M28 36h20M52 36h1M3 37h1M25 37h23M52 37h1M3 38h1M18 38h21M40 38h8M52 38h1M3 39h2M14 39h25M41 39h7M52 39h1M4 40h1M14 40h21M37 40h2M42 40h6M52 40h1M4 41h1M18 41h17M38 41h1M42 41h6M51 41h2M4 42h1M19 42h15M38 42h1M44 42h4M49 42h4M5 43h1M19 43h15M37 43h2M45 43h7M5 44h1M19 44h14M37 44h2M46 44h4M5 45h1M19 45h8M29 45h4M37 45h2M5 46h1M19 46h7M30 46h4M36 46h2M19 47h7M30 47h4M36 47h2M19 48h7M30 48h8M19 49h6M29 49h9M19 50h6M29 50h2M32 50h4M19 51h6M29 51h2M33 51h3M19 52h7M29 52h2M19 53h7M29 53h2M20 54h6M29 54h2M20 55h10M20 56h10M20 57h10M21 58h8M23 59h4" />
<path stroke="#7e5edf" d="M35 4h2M32 5h8M30 6h14M28 7h18M28 8h19M27 9h15M44 9h5M27 10h15M45 10h5M28 11h15M48 11h3M28 12h15M48 12h4M28 13h16M49 13h3M28 14h16M50 14h3M28 15h17M51 15h3M28 16h17M51 16h3M28 17h17M52 17h3M28 18h17M53 18h2M27 19h18M53 19h3M26 20h19M54 20h3M25 21h20M54 21h3M16 22h2M23 22h22M54 22h3M15 23h30M54 23h3M14 24h24M43 24h3M53 24h4M13 25h23M43 25h3M51 25h5M12 26h23M43 26h12M11 27h22M42 27h12M10 28h21M40 28h11M9 29h20M39 29h10M7 30h19M36 30h10M7 31h1M9 31h13M33 31h11M6 32h2M28 32h12M5 33h2M23 33h15M4 34h2M20 34h15M4 35h1M16 35h16M4 36h1M15 36h13M4 37h1M14 37h11M14 38h4" />
<path stroke="#734de0" d="M18 8h5M16 9h7M42 9h2M15 10h5M42 10h3M15 11h3M43 11h5M14 12h3M22 12h2M43 12h5M14 13h2M22 13h3M44 13h5M13 14h3M21 14h4M44 14h6M13 15h3M21 15h4M45 15h6M13 16h3M21 16h4M45 16h6M13 17h3M20 17h5M45 17h7M13 18h3M19 18h5M45 18h8M13 19h4M20 19h3M45 19h8M14 20h5M45 20h9M45 21h9M45 22h9M45 23h9M46 24h7M46 25h5" />
<path stroke="#8465df" d="M20 10h4M18 11h8M17 12h5M24 12h2M16 13h6M25 13h2M16 14h5M25 14h2M16 15h5M25 15h2M16 16h5M25 16h1M16 17h4M25 17h1M16 18h3M24 18h1M17 19h3M23 19h2M19 20h5M20 21h2M38 24h5M36 25h7M35 26h8M33 27h9M31 28h9M29 29h10M26 30h10M8 31h1M22 31h11M8 32h20M7 33h16M6 34h14M5 35h11M5 36h10M5 37h9M7 38h7" />
<path stroke="rgba(134,93,228,0.07450980392156863)" d="M13 13h1" />
<path stroke="#877fe3" d="M58 26h1M57 27h2M57 28h2M57 29h2M57 30h1M49 32h2M49 33h2M49 34h2M48 35h4M48 36h4M48 37h4M4 38h3M48 38h4M5 39h9M48 39h4M5 40h9M35 40h2M48 40h4M5 41h9M35 41h3M48 41h3M5 42h9M34 42h4M48 42h1M6 43h8M34 43h3M6 44h2M9 44h4M33 44h4M6 45h1M10 45h2M27 45h2M33 45h4M10 46h1M26 46h4M34 46h2M26 47h4M34 47h2M26 48h4M25 49h4M25 50h4M25 51h4M26 52h3M26 53h3M26 54h3" />
<path stroke="#fdda81" d="M53 30h1M52 31h3M59 31h1M53 32h3M59 32h1M53 33h3M58 33h2M53 34h6M53 35h1M55 35h4M55 36h4M55 37h4M39 38h1M55 38h4M39 39h2M55 39h4M39 40h3M55 40h4M14 41h4M39 41h3M55 41h4M14 42h5M39 42h5M55 42h4M14 43h2M17 43h2M39 43h6M55 43h3M14 44h2M18 44h1M39 44h2M45 44h1M55 44h3M14 45h2M18 45h1M39 45h1M55 45h3M14 46h2M18 46h1M38 46h2M55 46h3M14 47h2M38 47h1M55 47h3M14 48h2M55 48h3M14 49h2M55 49h1M14 50h2M31 50h1M14 51h2M31 51h2M14 52h2M31 52h1M14 53h2M31 53h1M14 54h2M14 55h2M14 56h2M14 57h2M14 58h2M14 59h2M14 60h1M14 61h1" />
<path stroke="#fde4a4" d="M59 34h1M54 35h1M59 35h1M53 36h2M59 36h1M53 37h2M59 37h1M53 38h2M59 38h1M53 39h2M59 39h1M53 40h2M59 40h1M53 41h2M59 41h1M53 42h2M59 42h1M16 43h1M52 43h3M58 43h2M16 44h2M41 44h4M50 44h5M58 44h2M16 45h2M40 45h15M58 45h1M16 46h2M40 46h15M58 46h1M5 47h1M16 47h3M39 47h16M58 47h1M5 48h1M16 48h3M38 48h17M58 48h1M5 49h1M16 49h3M38 49h17M56 49h3M5 50h1M16 50h3M36 50h21M5 51h1M16 51h3M36 51h19M5 52h1M16 52h3M32 52h20M5 53h1M16 53h3M32 53h18M5 54h1M16 54h4M31 54h17M5 55h1M16 55h4M30 55h16M5 56h1M16 56h4M30 56h13M5 57h2M16 57h4M30 57h10M6 58h1M16 58h5M29 58h7M6 59h1M16 59h7M27 59h5M6 60h1M15 60h14M6 61h2M15 61h10M7 62h12" />
<path stroke="#7e6de0" d="M3 35h1" />
<path stroke="#fff0c2" d="M8 44h1M13 44h1M7 45h3M12 45h2M6 46h4M11 46h3M6 47h8M6 48h8M6 49h8M6 50h8M6 51h8M6 52h8M6 53h8M6 54h8M6 55h8M6 56h8M7 57h7M7 58h7M7 59h7M7 60h7M8 61h6" />
</svg>