<svg xmlns="http://www.w3.org/2000/svg" viewBox="0 -0.5 64 64" shape-rendering="crispEdges">
<metadata>Made with Pixels to Svg https://codepen.io/shshaw/pen/XbxvNj</metadata>
<path stroke="#f5926e" d="M7 0h6M6 1h1M13 1h1M7 2h6" />
<path stroke="#fffcfc" d="M22 0h3M40 0h2M17 1h8M39 1h8M15 2h10M38 2h11M14 3h10M38 3h13M14 4h10M38 4h14M14 5h9M38 5h15M14 6h9M38 6h16M14 7h7M38 7h16M14 8h6M38 8h15M14 9h3M39 9h14M39 10h13M41 11h8M20 13h3M27 13h3M19 14h5M26 14h5M18 15h14M18 16h14M18 17h14M19 18h12M20 19h10M43 19h8M21 20h8M42 20h10M22 21h6M41 21h12M23 22h4M40 22h13M62 22h2M24 23h2M40 23h13M61 23h3M1 24h9M39 24h15M61 24h3M0 25h12M39 25h15M61 25h3M0 26h14M39 26h15M61 26h3M0 27h15M38 27h15M61 27h2M0 28h15M38 28h15M62 28h1M0 29h16M39 29h14M0 30h16M39 30h12M0 31h16M42 31h5M2 32h14M4 33h12M9 34h4" />
<path stroke="#ce5fc8" d="M25 0h15M25 1h14M25 2h13M24 3h14M24 4h14M23 5h15M23 6h15M21 7h17M54 7h1M20 8h18M53 8h2M17 9h22M53 9h3M14 10h25M52 10h5M14 11h27M49 11h8M14 12h44M13 13h7M23 13h4M30 13h28M5 14h1M12 14h7M24 14h2M31 14h28M4 15h2M10 15h8M32 15h28M4 16h2M9 16h9M32 16h28M3 17h3M8 17h10M32 17h29M3 18h3M7 18h12M31 18h30M2 19h18M30 19h13M51 19h11M2 20h19M29 20h13M52 20h10M1 21h21M28 21h13M53 21h10M1 22h22M27 22h13M53 22h9M1 23h23M26 23h14M53 23h8M10 24h29M54 24h7M12 25h27M54 25h7M14 26h25M54 26h7M15 27h23M53 27h8M15 28h23M53 28h9M16 29h23M53 29h9M16 30h23M51 30h11M16 31h26M47 31h14M16 32h4M27 32h33M16 33h1M30 33h27M32 34h21M34 35h17M37 36h12M30 46h1M29 47h3M30 48h1M14 56h20M14 57h20" />
<path stroke="#f4737e" d="M7 1h6" />
<path stroke="#ecd189" d="M6 2h1M13 2h1M6 3h8M6 4h8M6 5h8M6 6h8M6 7h8M6 8h8M6 9h8M6 10h8M6 11h8M6 12h8M6 13h7M6 14h6M6 15h4M6 16h3M6 17h2M6 18h1M20 32h7M17 33h13M13 34h7M28 34h4M10 35h8M30 35h4M51 35h3M10 36h8M30 36h7M49 36h5M10 37h7M31 37h23M9 38h7M32 38h23M9 39h7M32 39h7M48 39h7M9 40h7M32 40h6M49 40h6M8 41h7M33 41h4M50 41h6M8 42h7M33 42h4M50 42h6M8 43h7M33 43h4M50 43h6M8 44h7M33 44h4M50 44h6M7 45h8M33 45h4M50 45h7M7 46h8M33 46h4M50 46h7M7 47h8M33 47h4M50 47h7M6 48h9M33 48h5M49 48h9M6 49h9M33 49h6M48 49h10M6 50h9M33 50h25M6 51h9M33 51h25M5 52h10M33 52h26M5 53h10M33 53h26M5 54h10M33 54h26M4 55h11M33 55h27M4 56h10M34 56h26M4 57h10M34 57h26" />
<path stroke="#8c4646" d="M20 34h8M18 35h12M18 36h12M17 37h14M16 38h16M16 39h16M16 40h16M15 41h18M15 42h18M15 43h18M15 44h18M15 45h18M15 46h15M31 46h2M15 47h14M32 47h1M15 48h15M31 48h2M15 49h18M15 50h18M15 51h18M15 52h18M15 53h18M15 54h18M15 55h18" />
<path stroke="#879fd8" d="M39 39h9M38 40h1M43 40h1M48 40h1M37 41h1M43 41h1M49 41h1M37 42h1M43 42h1M49 42h1M37 43h1M43 43h1M49 43h1M37 44h13M37 45h1M43 45h1M49 45h1M37 46h1M43 46h1M49 46h1M37 47h1M43 47h1M49 47h1M38 48h1M43 48h1M48 48h1M39 49h9" />
<path stroke="#aeafe1" d="M39 40h4M44 40h4M38 41h5M44 41h5M38 42h5M44 42h5M38 43h5M44 43h5M38 45h5M44 45h5M38 46h5M44 46h5M38 47h5M44 47h5M39 48h4M44 48h4" />
<path stroke="#80ac9c" d="M2 58h11M35 58h27M1 59h12M35 59h28M0 60h64M0 61h64M0 62h64M0 63h64" />
<path stroke="#c47fd2" d="M13 58h22M13 59h22" />
</svg>