<svg xmlns="http://www.w3.org/2000/svg" viewBox="0 -0.5 64 64" shape-rendering="crispEdges">
<metadata>Made with Pixels to Svg https://codepen.io/shshaw/pen/XbxvNj</metadata>
<path stroke="#c057e5" d="M39 1h1M37 2h2M35 3h2M34 4h2M33 5h2M31 6h2M43 6h7M30 7h2M42 7h2M49 7h1M29 8h2M40 8h2M43 8h1M28 9h2M39 9h1M27 10h2M37 10h2M26 11h2M36 11h2M25 12h2M35 12h1M25 13h1M34 13h2M33 14h1M55 14h1M24 15h1M32 15h1M31 16h1M23 17h1M30 17h1M30 18h1M22 19h1M14 25h1M61 25h1M13 26h1M10 36h3M2 37h1M9 37h3M2 38h1M9 38h2M1 39h1M8 39h2M1 40h1M7 40h2M0 41h1M7 41h2M0 42h1M6 42h2M0 43h1M6 43h1M0 44h1M0 45h1M0 46h1M0 47h2M31 47h1M0 48h2M29 49h1M1 50h1M8 50h1M9 52h1M19 56h1" />
<path stroke="#bf56e4" d="M40 1h10M51 1h1M57 5h1M58 6h1M45 7h4M50 7h1M59 7h1M50 8h2M60 8h1M40 9h1M52 9h1M39 10h1M53 10h1M61 10h1M54 11h1M36 12h1M55 12h1M55 13h1M25 14h1M34 14h1M62 14h1M33 15h1M56 15h1M62 15h1M32 16h1M62 16h1M31 17h1M56 17h1M62 17h1M56 18h1M62 18h1M30 19h1M56 19h1M56 20h1M62 20h1M62 21h1M19 22h2M62 22h1M17 23h2M61 23h2M16 24h3M61 24h1M15 25h1M14 26h1M60 26h2M11 27h2M60 27h1M10 28h2M28 28h2M59 28h2M9 29h2M28 29h2M59 29h1M9 30h1M29 30h1M31 30h2M58 30h1M7 31h2M30 31h1M6 32h2M33 32h1M6 33h1M32 33h1M34 33h1M5 34h1M33 34h2M42 34h1M4 35h1M42 35h2M3 36h1M35 36h2M3 37h1M35 37h2M3 38h1M35 38h2M34 39h2M35 40h1M35 41h1M34 42h2M5 43h1M34 43h1M5 44h2M34 44h1M5 45h2M33 45h1M5 46h2M32 46h2M5 47h2M32 47h1M5 48h2M30 48h2M1 49h1M6 49h2M30 49h1M6 50h2M28 50h2M1 51h2M6 51h2M27 51h2M7 52h2M26 52h3M7 53h3M25 53h2M8 54h3M24 54h2M9 55h3M23 55h2M10 56h5M20 56h3M14 57h6M10 60h1M12 62h1" />
<path stroke="#bf55e3" d="M50 1h1M44 7h1M42 8h1M56 16h1M62 19h1M15 24h1M30 29h1M8 30h1M32 31h1M5 33h1M7 43h1M7 48h1M8 51h1M2 52h1M6 59h1" />
<path stroke="#c158e6" d="M52 1h1M57 4h1M12 26h1M5 58h1" />
<path stroke="#d077f1" d="M39 2h1M52 2h1M38 3h1M54 3h2M36 4h1M56 4h1M32 7h1M31 8h1M30 9h1M60 9h1M29 10h1M28 11h1M61 11h1M27 12h1M26 13h1M29 19h1M29 20h1M22 21h1M28 21h1M55 21h1M21 22h1M28 22h4M55 22h1M19 23h3M28 23h5M55 23h1M19 24h3M28 24h8M54 24h1M16 25h2M31 25h5M54 25h1M60 25h1M15 26h2M34 26h4M52 26h2M13 27h3M19 27h3M28 27h3M36 27h3M51 27h2M59 27h1M12 28h3M18 28h4M30 28h2M38 28h2M50 28h2M58 28h1M11 29h2M17 29h3M31 29h2M39 29h1M50 29h1M57 29h2M10 30h2M16 30h3M22 30h1M28 30h1M33 30h1M39 30h1M49 30h1M56 30h1M9 31h2M16 31h2M28 31h2M33 31h3M40 31h1M47 31h2M56 31h2M8 32h3M15 32h1M23 32h1M29 32h2M34 32h3M40 32h1M47 32h1M55 32h1M7 33h3M14 33h2M23 33h1M30 33h2M35 33h2M41 33h1M46 33h1M54 33h2M6 34h3M12 34h2M30 34h3M35 34h2M41 34h1M53 34h1M5 35h3M12 35h2M24 35h3M31 35h7M41 35h1M44 35h1M47 35h1M53 35h1M4 36h3M26 36h2M32 36h3M37 36h1M41 36h3M45 36h2M51 36h1M4 37h2M26 37h3M32 37h3M37 37h1M42 37h2M50 37h1M4 38h2M27 38h4M34 38h1M37 38h1M49 38h1M2 39h3M29 39h4M36 39h2M46 39h2M2 40h3M32 40h3M36 40h2M41 40h6M1 41h3M33 41h2M36 41h2M41 41h3M1 42h2M36 42h2M41 42h1M1 43h2M35 43h3M41 43h1M1 44h2M35 44h3M41 44h1M1 45h1M34 45h3M1 46h1M34 46h2M33 47h3M39 47h1M32 48h2M37 48h2M31 49h2M37 49h2M30 50h2M36 50h2M29 51h2M35 51h1M37 51h1M29 52h1M34 52h3M27 53h2M33 53h2M3 54h1M26 54h2M32 54h3M4 55h1M25 55h1M31 55h2M5 56h1M23 56h2M30 56h3M6 57h1M20 57h4M29 57h1M31 57h1M6 58h2M17 58h6M28 58h2M7 59h2M27 59h2M9 60h1M26 60h1M10 61h2M23 61h1M13 62h4M18 62h3M22 62h2" />
<path stroke="#d794f2" d="M40 2h12M39 3h5M48 3h6M37 4h4M54 4h2M35 5h4M56 5h1M34 6h4M57 6h1M33 7h4M58 7h1M32 8h3M59 8h1M31 9h2M59 9h1M30 10h2M60 10h1M29 11h2M60 11h1M28 12h3M61 12h1M27 13h3M61 13h1M26 14h3M61 14h1M25 15h3M25 16h2M24 17h2M23 18h2M23 19h1M32 26h2M33 27h3M53 27h2M34 28h4M52 28h3M35 29h4M51 29h3M35 30h4M50 30h3M36 31h4M49 31h3M37 32h3M48 32h3M37 33h4M47 33h2M37 34h4M43 34h5M38 35h3M45 35h1M38 36h3M44 36h1M38 37h4M44 37h1M38 38h5M38 39h4M38 40h3M38 41h2M38 42h1" />
<path stroke="#d078f1" d="M53 2h1M37 3h1M62 12h1M24 16h1M29 21h1M33 23h1M54 23h1M53 25h1M20 29h1M49 29h1M40 30h1M48 30h1M57 30h1M16 32h1M46 32h1M56 32h1M45 33h1M24 34h1M54 34h1M52 36h1M48 39h1M44 41h1M39 48h1M36 51h1M35 53h1M30 57h1M25 61h1M21 62h1" />
<path stroke="#d079f1" d="M54 2h1M41 32h1M27 60h1" />
<path stroke="#fdccff" d="M44 3h4M41 4h13M39 5h17M38 6h5M50 6h3M55 6h2M37 7h3M51 7h2M56 7h2M35 8h3M56 8h3M33 9h3M57 9h2M32 10h3M58 10h2M31 11h2M58 11h2M31 12h1M58 12h3M30 13h1M58 13h3M29 14h2M58 14h3M28 15h3M59 15h3M27 16h3M59 16h3M27 17h3M59 17h3M27 18h3M59 18h3M26 19h3M59 19h3M26 20h3M59 20h3M25 21h3M58 21h4M25 22h3M57 22h5M24 23h4M57 23h4M24 24h4M57 24h4M20 25h2M25 25h3M56 25h4M20 26h1M25 26h3M56 26h4M18 27h1M25 27h3M55 27h4M16 28h2M26 28h2M55 28h3M13 29h1M15 29h2M26 29h2M54 29h3M12 30h2M15 30h1M26 30h2M53 30h3M11 31h5M26 31h2M52 31h4M11 32h4M27 32h2M51 32h4M10 33h4M27 33h3M49 33h5M9 34h3M28 34h2M48 34h5M8 35h4M29 35h2M48 35h4M7 36h3M30 36h2M47 36h4M6 37h3M31 37h1M45 37h5M6 38h3M31 38h3M43 38h6M5 39h3M33 39h1M42 39h4M5 40h2M4 41h3M3 42h3M3 43h2M3 44h2M2 45h3M37 45h2M2 46h3M36 46h2M2 47h3M36 47h2M2 48h3M34 48h3M2 49h4M33 49h4M4 50h2M32 50h4M4 51h2M31 51h4M4 52h3M30 52h4M5 53h2M29 53h4M5 54h3M28 54h4M7 55h2M26 55h5M8 56h2M25 56h5M9 57h5M24 57h5M11 58h6M23 58h3M27 58h1M13 59h11M20 60h2M19 61h4" />
<path stroke="rgba(192,88,230,0.9568627450980393)" d="M56 3h1" />
<path stroke="#be55e3" d="M58 5h1M59 6h1M54 12h1M31 32h1" />
<path stroke="#d793f2" d="M33 6h1M44 33h1" />
<path stroke="#fff4bd" d="M53 6h1M41 7h1M53 7h2M52 8h3M38 9h1M53 9h3M54 10h2M35 11h1M55 11h2M34 12h1M56 12h1M33 13h1M56 13h1M32 14h1M56 14h1M31 15h1M58 15h1M30 16h1M58 16h1M26 17h1M57 17h1M25 18h2M57 18h1M24 19h2M57 19h1M24 20h2M57 20h1M24 21h1M56 21h2M24 22h1M56 22h1M56 23h1M55 24h2M19 25h1M24 25h1M28 25h1M55 25h1M19 26h1M21 26h1M24 26h1M28 26h2M54 26h2M17 27h1M24 27h1M15 28h1M24 28h2M14 29h1M24 29h2M33 29h2M14 30h1M24 30h2M34 30h1M25 31h1M25 32h2M26 33h1M26 34h2M27 35h2M28 36h2M29 37h2M40 43h1M39 44h2M39 45h2M38 46h2M38 47h1M2 50h2M3 51h1M3 52h1M3 53h2M6 55h1M7 56h1M8 58h1M10 58h1M26 58h1M24 59h3M18 60h2M22 60h4M12 61h7" />
<path stroke="#ccfff4" d="M54 6h1M40 7h1M55 7h1M38 8h2M55 8h1M36 9h2M56 9h1M35 10h2M56 10h2M33 11h2M57 11h1M32 12h2M57 12h1M31 13h2M57 13h1M31 14h1M57 14h1M57 15h1M57 16h1M58 17h1M58 18h1M58 19h1M58 20h1M23 21h1M23 22h1M22 23h2M22 24h2M18 25h1M22 25h2M29 25h2M17 26h2M22 26h2M30 26h2M16 27h1M22 27h2M31 27h2M23 28h1M32 28h2M23 29h1M23 30h1M23 31h2M24 32h1M24 33h2M25 34h1M40 41h1M39 42h2M38 43h2M38 44h1M4 54h1M5 55h1M6 56h1M7 57h2M9 58h1M9 59h4M11 60h7" />
<path stroke="rgba(191,85,228,0.8549019607843137)" d="M60 7h1" />
<path stroke="rgba(193,87,229,0.9764705882352941)" d="M41 9h1M38 11h1M62 11h1M22 18h1" />
<path stroke="rgba(191,85,227,0.996078431372549)" d="M51 9h1" />
<path stroke="rgba(193,87,229,0.996078431372549)" d="M61 9h1" />
<path stroke="#cf76f1" d="M62 13h1M22 20h1M21 21h1M36 25h1M22 31h1M52 35h1M25 36h1M31 40h1M40 46h1M33 55h1M24 61h1" />
<path stroke="rgba(191,85,227,0.984313725490196)" d="M23 16h1" />
<path stroke="#e1d9e7" d="M23 20h1" />
<path stroke="rgba(208,121,241,0.996078431372549)" d="M55 20h1" />
<path stroke="rgba(191,86,228,0.9647058823529412)" d="M18 22h1" />
<path stroke="#d898f2" d="M22 22h1" />
<path stroke="rgba(208,118,241,0.996078431372549)" d="M34 23h1" />
<path stroke="rgba(208,120,241,0.9764705882352941)" d="M53 24h1" />
<path stroke="#dfb0f3" d="M22 28h1M21 29h2M17 62h1" />
<path stroke="rgba(207,118,241,0.9921568627450981)" d="M22 32h1" />
<path stroke="rgba(172,65,197,0.12156862745098039)" d="M33 33h1M49 39h1" />
<path stroke="rgba(188,83,225,0.9686274509803922)" d="M4 34h1" />
<path stroke="rgba(209,124,241,0.9882352941176471)" d="M23 34h1" />
<path stroke="#d58df2" d="M46 35h1" />
<path stroke="rgba(207,116,241,0.996078431372549)" d="M51 37h1" />
<path stroke="rgba(209,123,241,0.8745098039215686)" d="M50 38h1" />
<path stroke="rgba(207,119,242,0.8901960784313725)" d="M47 40h1" />
<path stroke="rgba(207,121,242,0.9254901960784314)" d="M41 45h1" />
<path stroke="rgba(207,117,241,0.9450980392156862)" d="M40 47h1" />
<path stroke="rgba(208,119,242,0.9647058823529412)" d="M38 50h1" />
<path stroke="#c45be9" d="M2 53h1M2 54h1M2 55h2M3 56h2M4 57h2M8 60h1M8 61h2M11 62h1" />
<path stroke="rgba(208,121,241,0.9882352941176471)" d="M30 58h1" />
<path stroke="rgba(188,83,224,0.9450980392156862)" d="M7 60h1" />
<path stroke="rgba(255,255,255,0.00784313725490196)" d="M24 62h1" />
</svg>