<svg xmlns="http://www.w3.org/2000/svg" viewBox="0 -0.5 64 64" shape-rendering="crispEdges">
<metadata>Made with Pixels to Svg https://codepen.io/shshaw/pen/XbxvNj</metadata>
<path stroke="#8500ff" d="M30 2h7M29 3h1M37 3h1M30 4h7M29 24h1M37 24h1M30 25h7" />
<path stroke="#8465df" d="M30 3h7M29 4h1M37 4h1M29 5h9M29 6h9M29 7h9M29 8h9M29 9h9M29 10h9M29 11h9M29 12h9M29 13h9M29 14h9M29 15h9M29 16h9M29 17h9M29 18h9M29 19h9M29 20h9M29 21h9M29 22h9M29 23h9M30 24h7" />
<path stroke="#aeafe1" d="M25 12h4M20 13h6M38 13h9M18 14h3M46 14h3M16 15h3M48 15h4M13 16h4M51 16h2M13 17h1M52 17h2M13 18h1M53 18h1M12 19h2M53 19h2M12 20h1M53 20h2M12 21h1M54 21h1M12 22h1M54 22h1M12 23h1M53 23h2M12 24h2M53 24h1M14 25h2M52 25h1M15 26h3M51 26h2M17 27h3M47 27h5M19 28h8M41 28h9M25 29h6M36 29h7M28 30h11" />
<path stroke="#e773c8" d="M26 13h3M21 14h8M38 14h8M19 15h10M38 15h10M17 16h12M38 16h13M14 17h15M38 17h14M14 18h15M38 18h15M14 19h15M38 19h15M13 20h16M38 20h15M13 21h16M38 21h16M13 22h16M38 22h16M13 23h16M38 23h15M14 24h15M38 24h15M16 25h14M37 25h15M18 26h33M20 27h27M27 28h14M31 29h5" />
<path stroke="#ffb2f6" d="M54 24h1M12 25h1M53 25h2M12 26h3M53 26h2M12 27h5M52 27h3M12 28h7M50 28h4M13 29h12M43 29h11M13 30h15M39 30h15M13 31h16M38 31h16M13 32h16M38 32h16M13 33h16M38 33h15M13 34h16M38 34h15M16 35h13M38 35h15M19 36h10M38 36h15M23 37h6M38 37h15M26 38h3M38 38h12M38 39h6" />
<path stroke="rgba(174,175,225,0.9921568627450981)" d="M13 25h1" />
<path stroke="#c285e7" d="M29 31h9M29 32h9M29 33h9M29 34h9M29 35h9M29 36h9M29 37h9M29 38h9M29 39h9M29 40h9M29 41h9M30 42h7M29 48h1M37 48h1M29 49h1M37 49h1M30 50h7" />
<path stroke="#f388e1" d="M13 35h3M13 36h6M15 37h8M17 38h9M50 38h3M22 39h7M44 39h7M25 40h4M38 40h10M28 41h1M38 41h8" />
<path stroke="#c47fd2" d="M13 37h2M13 38h4M14 39h8M51 39h1M16 40h9M48 40h4M21 41h7M46 41h6M23 42h6M38 42h10M27 43h2M38 43h8M38 44h2" />
<path stroke="#879fd8" d="M13 39h1M13 40h3M13 41h8M15 42h8M48 42h4M17 43h10M46 43h6M21 44h8M40 44h9M25 45h4M38 45h9M38 46h3" />
<path stroke="#73baca" d="M14 42h1M14 43h3M14 44h7M49 44h3M17 45h8M47 45h5M21 46h8M41 46h9M26 47h3M38 47h9M38 48h4" />
<path stroke="#d976c2" d="M29 42h1M37 42h1M30 43h7" />
<path stroke="#9a7ed7" d="M29 43h1M37 43h1M29 44h9M29 45h9M29 46h9M29 47h9M30 48h7M30 49h7" />
<path stroke="#80ac9c" d="M14 45h3M15 46h6M50 46h2M16 47h10M47 47h4M20 48h9M42 48h8M25 49h4M38 49h10M28 50h2M37 50h7M28 51h11M30 52h6" />
<path stroke="#a5bc84" d="M15 47h1M15 48h5M50 48h1M15 49h10M48 49h3M15 50h13M44 50h7M15 51h13M39 51h12M16 52h14M36 52h14M16 53h34M16 54h34M16 55h34M16 56h34M18 57h30M20 58h24M23 59h19M28 60h9" />
</svg>