<svg xmlns="http://www.w3.org/2000/svg" viewBox="0 -0.5 64 64" shape-rendering="crispEdges">
<metadata>Made with Pixels to Svg https://codepen.io/shshaw/pen/XbxvNj</metadata>
<path stroke="#c13ace" d="M3 0h58M2 1h1M61 1h1M1 2h1M62 2h1M0 3h1M5 3h54M63 3h1M0 4h1M4 4h1M59 4h1M63 4h1M0 5h1M3 5h1M60 5h1M63 5h1M0 6h1M3 6h1M60 6h1M63 6h1M0 7h1M3 7h1M60 7h1M63 7h1M0 8h1M3 8h1M60 8h1M63 8h1M0 9h1M3 9h1M60 9h1M63 9h1M0 10h1M3 10h1M60 10h1M63 10h1M0 11h1M3 11h1M60 11h1M63 11h1M0 12h1M3 12h1M60 12h1M63 12h1M0 13h1M3 13h1M60 13h1M63 13h1M0 14h1M3 14h1M60 14h1M63 14h1M0 15h1M3 15h1M60 15h1M63 15h1M0 16h1M3 16h1M60 16h1M63 16h1M0 17h1M3 17h1M60 17h1M63 17h1M0 18h1M3 18h1M60 18h1M63 18h1M0 19h1M3 19h1M60 19h1M63 19h1M0 20h1M3 20h1M60 20h1M63 20h1M0 21h1M3 21h1M60 21h1M63 21h1M0 22h1M3 22h1M60 22h1M63 22h1M0 23h1M3 23h1M60 23h1M63 23h1M0 24h1M3 24h1M60 24h1M63 24h1M0 25h1M3 25h1M60 25h1M63 25h1M0 26h1M3 26h1M60 26h1M63 26h1M0 27h1M3 27h1M60 27h1M63 27h1M0 28h1M3 28h1M60 28h1M63 28h1M0 29h1M3 29h1M60 29h1M63 29h1M0 30h1M3 30h1M60 30h1M63 30h1M0 31h1M3 31h1M60 31h1M63 31h1M0 32h1M3 32h1M60 32h1M63 32h1M0 33h1M3 33h1M60 33h1M63 33h1M0 34h1M3 34h1M60 34h1M63 34h1M0 35h1M3 35h1M60 35h1M63 35h1M0 36h1M3 36h1M60 36h1M63 36h1M0 37h1M3 37h1M60 37h1M63 37h1M0 38h1M3 38h1M60 38h1M63 38h1M0 39h1M3 39h1M60 39h1M63 39h1M0 40h1M3 40h1M60 40h1M63 40h1M0 41h1M3 41h1M60 41h1M63 41h1M0 42h1M3 42h1M60 42h1M63 42h1M0 43h1M3 43h1M60 43h1M63 43h1M0 44h1M3 44h1M60 44h1M63 44h1M0 45h1M3 45h1M60 45h1M63 45h1M0 46h1M4 46h1M59 46h1M63 46h1M0 47h1M5 47h54M63 47h1M1 48h1M62 48h1M2 49h1M61 49h1M3 50h58M27 51h1M36 51h1M27 52h1M36 52h1M27 53h1M36 53h1M23 54h5M36 54h5M19 55h4M27 55h1M36 55h1M41 55h4M16 56h4M27 56h1M36 56h1M44 56h4M14 57h3M27 57h1M36 57h1M47 57h3M13 58h2M27 58h1M36 58h1M49 58h2M12 59h2M28 59h2M34 59h2M50 59h2M12 60h1M29 60h6M51 60h1M12 61h2M50 61h2M13 62h3M48 62h3M15 63h34" />
<path stroke="#d976c2" d="M3 1h58M2 2h60M1 3h4M59 3h4M1 4h3M60 4h3M1 5h2M61 5h2M1 6h2M61 6h2M1 7h2M61 7h2M1 8h2M61 8h2M1 9h2M61 9h2M1 10h2M61 10h2M1 11h2M61 11h2M1 12h2M61 12h2M1 13h2M61 13h2M1 14h2M61 14h2M1 15h2M61 15h2M1 16h2M61 16h2M1 17h2M61 17h2M1 18h2M61 18h2M1 19h2M61 19h2M1 20h2M61 20h2M1 21h2M61 21h2M1 22h2M61 22h2M1 23h2M61 23h2M1 24h2M61 24h2M1 25h2M61 25h2M1 26h2M61 26h2M1 27h2M61 27h2M1 28h2M61 28h2M1 29h2M61 29h2M1 30h2M61 30h2M1 31h2M61 31h2M1 32h2M61 32h2M1 33h2M61 33h2M1 34h2M61 34h2M1 35h2M61 35h2M1 36h2M61 36h2M1 37h2M61 37h2M1 38h2M61 38h2M1 39h2M61 39h2M1 40h2M61 40h2M1 41h2M61 41h2M1 42h2M61 42h2M1 43h2M61 43h2M1 44h2M61 44h2M1 45h2M61 45h2M1 46h3M60 46h3M1 47h4M59 47h4M2 48h60M3 49h58M33 52h3M31 53h5M30 54h6M23 55h4M30 55h6M37 55h4M20 56h7M29 56h7M38 56h6M17 57h10M29 57h7M42 57h5M15 58h12M29 58h7M44 58h5M14 59h14M30 59h4M46 59h4M13 60h16M45 60h6M14 61h16M43 61h7M16 62h32" />
<path stroke="#689581" d="M5 4h54M4 5h56M4 6h27M33 6h27M4 7h24M31 7h2M36 7h24M4 8h22M28 8h8M38 8h22M4 9h21M27 9h10M39 9h21M4 10h20M26 10h12M40 10h20M4 11h19M25 11h5M34 11h5M41 11h19M4 12h19M24 12h4M36 12h4M41 12h19M4 13h19M24 13h4M36 13h4M41 13h19M4 14h19M24 14h3M37 14h3M41 14h19M4 15h13M23 15h4M37 15h4M47 15h13M4 16h11M17 16h10M37 16h10M49 16h11M4 17h11M16 17h11M37 17h11M49 17h11M4 18h10M15 18h7M42 18h7M50 18h10M4 19h10M15 19h4M45 19h4M50 19h10M4 20h9M14 20h5M45 20h5M51 20h9M4 21h9M14 21h4M46 21h4M51 21h9M4 22h9M14 22h4M46 22h4M51 22h9M4 23h9M14 23h4M46 23h4M51 23h9M4 24h9M14 24h4M46 24h4M51 24h9M4 25h9M15 25h4M45 25h4M51 25h9M4 26h10M15 26h4M45 26h4M50 26h10M4 27h11M16 27h4M44 27h4M49 27h11M4 28h12M18 28h3M43 28h3M48 28h12M4 29h13M19 29h4M41 29h4M47 29h13M4 30h14M19 30h4M41 30h4M46 30h14M4 31h13M18 31h4M42 31h4M47 31h13M4 32h13M18 32h4M42 32h4M47 32h13M4 33h12M18 33h3M43 33h3M48 33h12M4 34h12M17 34h4M43 34h4M48 34h12M4 35h12M17 35h4M43 35h4M48 35h12M4 36h12M18 36h4M42 36h4M48 36h12M4 37h13M18 37h5M31 37h2M41 37h5M47 37h13M4 38h13M18 38h6M30 38h4M40 38h6M47 38h13M4 39h14M19 39h26M46 39h14M4 40h15M20 40h11M33 40h11M45 40h15M4 41h16M22 41h8M31 41h2M34 41h8M44 41h16M4 42h17M25 42h2M30 42h4M37 42h2M43 42h17M4 43h21M27 43h10M39 43h21M4 44h56M4 45h56M5 46h54" />
<path stroke="#a1bca6" d="M31 6h2M28 7h3M33 7h3M26 8h2M36 8h2M25 9h2M37 9h2M24 10h2M38 10h2M23 11h2M30 11h4M39 11h2M23 12h1M28 12h8M40 12h1M23 13h1M28 13h8M40 13h1M23 14h1M27 14h10M40 14h1M17 15h6M27 15h10M41 15h6M15 16h2M27 16h10M47 16h2M15 17h1M27 17h10M48 17h1M14 18h1M22 18h20M49 18h1M14 19h1M19 19h26M49 19h1M13 20h1M19 20h26M50 20h1M13 21h1M18 21h28M50 21h1M13 22h1M18 22h28M50 22h1M13 23h1M18 23h28M50 23h1M13 24h1M18 24h28M50 24h1M13 25h2M19 25h26M49 25h2M14 26h1M19 26h26M49 26h1M15 27h1M20 27h24M48 27h1M16 28h2M21 28h22M46 28h2M17 29h2M23 29h18M45 29h2M18 30h1M23 30h18M45 30h1M17 31h1M22 31h20M46 31h1M17 32h1M22 32h20M46 32h1M16 33h2M21 33h22M46 33h2M16 34h1M21 34h22M47 34h1M16 35h1M21 35h22M47 35h1M16 36h2M22 36h20M46 36h2M17 37h1M23 37h8M33 37h8M46 37h1M17 38h1M24 38h6M34 38h6M46 38h1M18 39h1M45 39h1M19 40h1M31 40h2M44 40h1M20 41h2M30 41h1M33 41h1M42 41h2M21 42h4M27 42h3M34 42h3M39 42h4M25 43h2M37 43h2" />
<path stroke="#ce5fc8" d="M28 51h8M28 52h5M28 53h3M28 54h2M28 55h2M28 56h1M37 56h1M28 57h1M37 57h5M28 58h1M37 58h7M36 59h10M35 60h10M30 61h13" />
</svg>