<svg xmlns="http://www.w3.org/2000/svg" viewBox="0 -0.5 64 64" shape-rendering="crispEdges">
<metadata>Made with Pixels to Svg https://codepen.io/shshaw/pen/XbxvNj</metadata>
<path stroke="#dd9072" d="M46 0h1M45 1h2M49 1h1M44 2h4M50 2h1M44 3h4M50 3h2M45 4h3M50 4h2M42 5h2M45 5h4M42 6h2M46 6h4M41 7h3M46 7h4M41 8h3M46 8h3M41 9h3M46 9h2M41 10h3M46 10h2M38 11h2M41 11h4M37 12h3M42 12h4M36 13h4M42 13h3M36 14h4M42 14h3M37 15h4M43 15h1M38 16h3M40 17h2" />
<path stroke="#fac2b6" d="M47 0h2M47 1h2M48 2h2M48 3h2M43 4h2M48 4h2M44 5h1M49 5h2M44 6h2M44 7h2M40 8h1M44 8h2M39 9h2M44 9h2M39 10h2M44 10h2M40 11h1M45 11h2M40 12h2M40 13h2M40 14h2M41 15h2M41 16h2M42 17h1" />
<path stroke="#9e4243" d="M28 7h7M26 8h11M25 9h2M31 9h7M24 10h2M30 10h9M23 11h2M29 11h9M22 12h2M28 12h9M21 13h2M29 13h7M20 14h2M31 14h5M20 15h1M32 15h5M20 16h1M32 16h6M20 17h5M32 17h8M24 18h4M31 18h8M27 19h2M30 19h8M28 20h8M29 21h6M30 22h3" />
<path stroke="#bc5952" d="M27 9h4M26 10h4M25 11h4M24 12h4M23 13h6M22 14h9M21 15h11M21 16h11M25 17h7M28 18h3M29 19h1" />
<path stroke="#fef5d9" d="M43 17h2M39 18h9M38 19h12M36 20h2M42 20h8M35 21h2M42 21h9M33 22h3M42 22h10M31 23h3M41 23h12M32 24h1M40 24h13M32 25h1M40 25h13M32 26h2M40 26h13M33 27h1M41 27h13M33 28h1M42 28h12M33 29h1M43 29h11M33 30h2M44 30h10M33 31h2M44 31h9M34 32h2M44 32h8M34 33h2M43 33h8M35 34h1M42 34h8M35 35h1M40 35h4M46 35h4M35 36h1M39 36h3M47 36h2M35 37h2M39 37h2M35 38h5M36 39h3" />
<path stroke="#ff96e9" d="M18 18h6M16 19h11M15 20h13M14 21h15M13 22h17M12 23h2M16 23h15M11 24h2M17 24h15M10 25h2M17 25h15M10 26h1M18 26h14M10 27h1M18 27h15M10 28h2M20 28h13M10 29h4M21 29h12M12 30h2M22 30h11M12 31h3M23 31h10M14 32h2M25 32h9M16 33h2M26 33h8M17 34h2M26 34h9M18 35h1M27 35h8M20 36h1M27 36h8M21 37h1M27 37h6M27 38h5M22 39h1M27 39h4M22 40h1M27 40h3M22 41h1M27 41h3M22 42h2M26 42h3M23 43h4" />
<path stroke="#fffeef" d="M38 20h4M37 21h5M36 22h6M34 23h7M33 24h7M33 25h7M34 26h6M34 27h7M34 28h8M34 29h9M35 30h9M35 31h9M36 32h8M36 33h7M36 34h6M36 35h4M36 36h3M37 37h2" />
<path stroke="#ffb8f9" d="M14 23h2M13 24h4M12 25h5M11 26h7M11 27h7M12 28h8M14 29h7M14 30h8M15 31h8M16 32h9M18 33h8M19 34h7M19 35h8M21 36h6M22 37h5M22 38h5M23 39h4M23 40h4M23 41h4M24 42h2" />
<path stroke="#7b9ddb" d="M11 30h1M11 31h1M11 32h3M52 32h1M13 33h3M51 33h2M13 34h4M51 34h2M14 35h4M44 35h2M51 35h1M14 36h6M42 36h3M50 36h2M15 37h6M33 37h2M41 37h4M50 37h1M16 38h6M32 38h3M40 38h4M49 38h2M17 39h5M31 39h5M39 39h5M49 39h1M18 40h4M30 40h13M48 40h1M19 41h3M30 41h12M47 41h2M20 42h2M29 42h12M47 42h1M21 43h2M27 43h14M45 43h2M23 44h17M44 44h3M24 45h16M43 45h2M26 46h18M32 47h10M38 48h2M37 49h1M37 50h1M36 51h2M32 52h6M32 53h6M32 54h7M32 55h9M31 56h12M28 57h16M24 58h20M24 59h20M30 60h13M31 61h11M30 62h8" />
<path stroke="#878fe2" d="M11 33h2M11 34h2M12 35h2M12 36h2M13 37h2M13 38h3M14 39h3M15 40h3M16 41h3M17 42h3M18 43h3M19 44h4M21 45h3M22 46h4M24 47h8M25 48h13M36 49h1M35 50h2M29 51h7M28 52h4M27 53h5M26 54h6M25 55h7M24 56h7M23 57h5M22 58h2M21 59h3M21 60h9M22 61h9M26 62h4" />
<path stroke="#99b8e8" d="M50 34h1M50 35h1M45 36h2M49 36h1M45 37h5M44 38h5M44 39h5M43 40h5M42 41h5M41 42h6M41 43h4M40 44h4M40 45h3" />
<path stroke="#897ee2" d="M15 41h1M16 42h1M17 43h1M17 44h2M19 45h2M20 46h2M22 47h2M24 48h1M26 49h10M26 50h9M26 51h3M26 52h2M26 53h1M25 54h1M23 55h2M21 56h3M20 57h3M20 58h2M20 59h1" />
</svg>