<svg xmlns="http://www.w3.org/2000/svg" viewBox="0 -0.5 64 64" shape-rendering="crispEdges">
<metadata>Made with Pixels to Svg https://codepen.io/shshaw/pen/XbxvNj</metadata>
<path stroke="#f0d794" d="M3 1h3M1 2h6M1 3h7M1 4h8M1 5h9M1 6h9M1 7h10M1 8h11M1 9h12M1 10h11M1 11h9M13 11h2M1 12h8M11 12h3M1 13h8M10 13h2M1 14h8M10 14h1M1 15h8M10 15h1M2 16h7M10 16h1M3 17h6M10 17h1M4 18h5M10 18h1M19 18h1M5 19h4M10 19h2M18 19h2M5 20h4M11 20h8M21 20h1M6 21h4M20 21h3M7 22h17M8 23h2M21 23h3M8 24h1M10 24h11M22 24h1M24 24h1M10 25h1M20 25h1M22 25h1M24 25h1M10 26h1M20 26h1M22 26h1M24 26h1M20 27h1M22 27h1M24 27h1M20 28h1M22 28h1M24 28h1M20 29h1M22 29h1M24 29h1M20 30h1M22 30h1M24 30h1M20 31h1M22 31h1M24 31h1M20 32h1M22 32h1M24 32h1M20 33h1M22 33h1M24 33h1M20 34h1M22 34h1M24 34h1M20 35h1M22 35h1M24 35h1M33 35h1M20 36h1M22 36h1M24 36h1M33 36h1M20 37h1M22 37h1M24 37h1M33 37h1M35 37h1M20 38h1M22 38h1M24 38h1M33 38h1M35 38h2M20 39h1M22 39h1M24 39h1M33 39h1M35 39h3M22 40h1M24 40h1M33 40h1M35 40h3M22 41h1M24 41h1M33 41h1M35 41h4M22 42h1M24 42h1M33 42h1M35 42h5M24 43h1M33 43h1M35 43h6M24 44h1M33 44h1M35 44h7M24 45h1M33 45h1M35 45h7M33 46h1M35 46h7M33 47h1M35 47h7M43 47h1M33 48h1M35 48h7M43 48h1M33 49h1M35 49h7M43 49h1M33 50h1M35 50h7M43 50h1M33 51h1M35 51h7M43 51h1M33 52h1M35 52h7M43 52h1M30 53h4M35 53h7M43 53h6M34 54h9M32 55h19M32 56h20M33 57h20M34 58h19M35 59h19M36 60h19M37 61h19M38 62h18" />
<path stroke="#65d1a1" d="M6 1h18M7 2h17M8 3h17M9 4h17M10 5h17M10 6h18M11 7h18M12 8h18M13 9h18M20 10h12M15 11h4M21 11h12M18 12h2M22 12h12M19 13h2M22 13h12M20 14h1M22 14h13M20 15h1M22 15h14M20 16h1M22 16h15M20 17h1M22 17h16M20 18h1M22 18h16M22 19h17M22 20h18M23 21h18M24 22h18M36 23h1M25 24h10M38 24h5M34 25h1M36 25h3M34 26h3M34 27h1M36 31h6M35 32h2M41 32h2M34 33h2M38 33h2M42 33h1M34 34h1M37 34h4M42 34h2M34 35h1M36 35h5M43 35h1M36 36h6M43 36h1M52 36h1M36 37h6M43 37h1M52 37h1M37 38h5M43 38h1M52 38h1M54 38h1M38 39h4M43 39h1M52 39h1M54 39h2M38 40h4M43 40h1M52 40h1M54 40h3M39 41h3M43 41h1M52 41h1M54 41h4M40 42h2M43 42h1M52 42h1M54 42h5M41 43h1M43 43h1M52 43h1M54 43h5M43 44h1M52 44h1M54 44h6M43 45h1M52 45h1M54 45h7M43 46h1M52 46h1M54 46h8M52 47h1M54 47h8M52 48h1M54 48h9M52 49h1M54 49h9M52 50h1M54 50h9M52 51h1M54 51h9M52 52h1M54 52h9M49 53h4M54 53h9M53 54h10M51 55h12M52 56h11M53 57h10M53 58h10M54 59h9M55 60h8M56 61h6M56 62h6" />
<path stroke="#73b9ea" d="M24 1h22M24 2h22M25 3h22M26 4h22M27 5h22M28 6h21M29 7h21M30 8h21M31 9h21M32 10h21M33 11h20M34 12h20M34 13h21M35 14h21M36 15h21M37 16h20M38 17h20M38 18h21M39 19h21M40 20h19M41 21h20M42 22h20M47 23h15M43 24h3M49 24h14M45 25h3M51 25h12M47 26h3M52 26h11M49 27h2M52 27h11M50 28h1M53 28h10M50 29h2M53 29h10M51 30h1M54 30h9M51 31h2M54 31h9M52 32h1M54 32h9M52 33h1M54 33h9M52 34h1M54 34h9M52 35h1M54 35h9M54 36h9M54 37h9M55 38h8M56 39h7M57 40h6M58 41h5M59 42h4M59 43h4M60 44h3M61 45h2M62 46h1M62 47h1" />
<path stroke="#8067d8" d="M46 1h15M46 2h16M47 3h16M48 4h15M49 5h14M49 6h14M50 7h13M51 8h12M52 9h11M53 10h10M53 11h10M54 12h9M55 13h8M56 14h7M57 15h6M57 16h6M58 17h5M59 18h4M60 19h3M60 20h3M61 21h2M62 22h1M62 23h1" />
<path stroke="#ffffff" d="M12 10h8M10 11h3M19 11h2M9 12h2M20 12h2M9 13h1M21 13h1M9 14h1M21 14h1M9 15h1M21 15h1M9 16h1M21 16h1M9 17h1M21 17h1M9 18h1M21 18h1M9 19h1M20 19h2M9 20h2M19 20h2M10 21h10M10 23h11M24 23h12M37 23h10M9 24h1M21 24h1M23 24h1M35 24h3M46 24h3M9 25h1M21 25h1M23 25h1M35 25h1M48 25h3M9 26h1M21 26h1M23 26h1M50 26h2M9 27h1M21 27h1M23 27h1M51 27h1M9 28h1M21 28h1M23 28h1M51 28h2M9 29h1M21 29h1M23 29h1M52 29h1M9 30h1M21 30h1M23 30h1M52 30h2M9 31h1M21 31h1M23 31h1M53 31h1M9 32h1M21 32h1M23 32h1M37 32h4M53 32h1M9 33h1M21 33h1M23 33h1M36 33h2M40 33h2M53 33h1M9 34h1M21 34h1M23 34h1M35 34h2M41 34h1M53 34h1M9 35h1M21 35h1M23 35h1M35 35h1M41 35h2M53 35h1M9 36h1M21 36h1M23 36h1M34 36h2M42 36h1M53 36h1M9 37h1M21 37h1M23 37h1M34 37h1M42 37h1M53 37h1M9 38h1M21 38h1M23 38h1M34 38h1M42 38h1M53 38h1M9 39h1M21 39h1M23 39h1M34 39h1M42 39h1M53 39h1M9 40h1M21 40h1M23 40h1M34 40h1M42 40h1M53 40h1M9 41h1M21 41h1M23 41h1M34 41h1M42 41h1M53 41h1M9 42h1M21 42h1M23 42h1M34 42h1M42 42h1M53 42h1M9 43h1M21 43h1M23 43h1M34 43h1M42 43h1M53 43h1M9 44h1M21 44h1M23 44h1M34 44h1M42 44h1M53 44h1M9 45h1M21 45h1M23 45h1M34 45h1M42 45h1M53 45h1M9 46h1M21 46h1M23 46h1M34 46h1M42 46h1M53 46h1M9 47h1M21 47h1M23 47h1M34 47h1M42 47h1M53 47h1M9 48h1M21 48h1M23 48h1M34 48h1M42 48h1M53 48h1M9 49h1M21 49h1M23 49h1M34 49h1M42 49h1M53 49h1M9 50h1M21 50h1M23 50h1M34 50h1M42 50h1M53 50h1M9 51h1M21 51h1M23 51h1M34 51h1M42 51h1M53 51h1M9 52h1M21 52h1M23 52h1M34 52h1M42 52h1M53 52h1M9 53h1M21 53h1M23 53h1M34 53h1M42 53h1M53 53h1M10 54h11M24 54h10M43 54h10" />
<path stroke="#f5926e" d="M1 16h1M1 17h2M1 18h3M1 19h4M1 20h4M1 21h5M1 22h6M1 23h7M1 24h7M1 25h8M1 26h8M1 27h8M10 27h1M1 28h8M10 28h1M1 29h8M10 29h1M1 30h8M10 30h1M1 31h8M10 31h1M1 32h8M10 32h1M1 33h8M10 33h1M1 34h8M10 34h1M1 35h8M10 35h1M1 36h8M10 36h1M1 37h8M10 37h1M1 38h8M10 38h1M1 39h8M10 39h1M2 40h7M10 40h1M20 40h1M3 41h6M10 41h1M20 41h1M4 42h5M10 42h1M20 42h1M5 43h4M10 43h1M20 43h1M22 43h1M5 44h4M10 44h1M20 44h1M22 44h1M6 45h3M10 45h1M20 45h1M22 45h1M7 46h2M10 46h1M20 46h1M22 46h1M24 46h1M8 47h1M10 47h1M20 47h1M22 47h1M24 47h1M8 48h1M10 48h1M20 48h1M22 48h1M24 48h1M10 49h1M20 49h1M22 49h1M24 49h1M10 50h1M20 50h1M22 50h1M24 50h1M10 51h1M20 51h1M22 51h1M24 51h1M20 52h1M22 52h1M24 52h1M12 53h9M22 53h1M24 53h6M21 54h3M14 55h18M15 56h17M15 57h18M16 58h18M17 59h18M18 60h18M19 61h18M19 62h19" />
<path stroke="#73b8ea" d="M59 20h1" />
<path stroke="#ce5fc8" d="M1 40h1M1 41h2M1 42h3M1 43h4M1 44h4M1 45h5M1 46h6M1 47h7M1 48h7M1 49h8M1 50h8M1 51h8M1 52h8M10 52h1M1 53h8M10 53h2M1 54h9M1 55h13M1 56h14M1 57h14M1 58h15M1 59h16M1 60h17M2 61h17M3 62h16" />
</svg>