<svg xmlns="http://www.w3.org/2000/svg" viewBox="0 -0.5 64 64" shape-rendering="crispEdges">
<metadata>Made with Pixels to Svg https://codepen.io/shshaw/pen/XbxvNj</metadata>
<path stroke="rgba(255,255,255,0.00784313725490196)" d="M39 1h1" />
<path stroke="#6c50d8" d="M40 1h1M35 4h1M48 30h1M24 35h1" />
<path stroke="#6d4fd8" d="M41 1h1M44 1h2M47 1h4M40 2h1M52 2h2M37 3h1M54 3h1M36 4h1M55 4h2M34 5h2M41 5h6M52 5h1M56 5h2M34 6h1M40 6h4M52 6h1M54 6h1M57 6h1M33 7h1M39 7h2M55 7h1M58 7h1M31 8h2M38 8h1M59 8h1M29 9h3M36 9h2M58 9h1M60 9h1M29 10h2M35 10h2M58 10h1M29 11h1M34 11h1M59 11h1M28 12h1M33 12h2M59 12h1M27 13h1M32 13h2M26 14h1M31 14h2M60 14h2M25 15h2M30 15h2M61 15h1M24 16h1M28 16h3M61 16h1M28 17h2M62 17h1M27 18h3M62 18h1M26 19h3M61 19h2M26 20h3M61 20h2M22 21h1M26 21h2M61 21h2M22 22h1M26 22h2M60 22h3M18 23h5M26 23h2M29 23h3M59 23h3M17 24h1M26 24h2M31 24h4M59 24h3M26 25h1M29 25h1M33 25h3M58 25h2M20 26h2M26 26h1M29 26h3M35 26h2M58 26h2M17 27h2M20 27h3M26 27h1M29 27h3M36 27h2M57 27h3M16 28h1M19 28h1M22 28h1M26 28h3M30 28h3M37 28h2M56 28h3M22 29h1M27 29h1M31 29h3M51 29h1M55 29h3M8 30h2M17 30h1M27 30h2M33 30h1M49 30h1M54 30h3M8 31h1M16 31h1M23 31h1M27 31h3M34 31h1M48 31h1M53 31h3M7 32h1M15 32h1M23 32h1M28 32h2M34 32h2M47 32h1M53 32h2M7 33h1M14 33h1M24 33h1M30 33h1M35 33h1M46 33h2M52 33h2M6 34h1M13 34h1M31 34h2M44 34h3M51 34h2M5 35h1M12 35h1M25 35h1M32 35h2M42 35h4M49 35h3M4 36h1M26 36h2M33 36h3M42 36h3M48 36h3M10 37h1M27 37h3M47 37h2M3 38h1M7 38h1M9 38h1M28 38h5M46 38h2M9 39h1M30 39h6M42 39h3M8 40h1M32 40h4M42 40h3M32 41h1M34 41h2M42 41h1M35 42h1M41 42h1M34 43h1M34 44h1M37 50h1M36 51h1M34 53h1M3 54h1M33 54h1M32 55h1M27 59h1M9 60h1M25 60h1" />
<path stroke="#6e50d9" d="M42 1h1" />
<path stroke="#6c4fd8" d="M43 1h1M31 7h1M21 22h1M29 22h1M50 29h1M40 31h1M30 32h1M8 41h1M31 56h1" />
<path stroke="#d976c1" d="M46 1h1" />
<path stroke="#48348d" d="M51 1h1" />
<path stroke="#4d3c90" d="M52 1h1M54 2h2M55 3h1M58 6h2M59 7h2M60 8h2M61 9h1M61 10h1" />
<path stroke="#6e51d6" d="M38 2h1" />
<path stroke="#6c4ed8" d="M39 2h1M23 17h1M32 23h1M11 28h1M41 32h1" />
<path stroke="#ffb2f6" d="M41 2h4M46 3h7M51 4h4M54 5h1M55 6h2M57 7h1M58 8h1M59 9h1M38 29h1M38 30h2M39 31h1M39 32h2M40 33h1M40 34h1M30 35h2M40 35h1M31 36h2M40 36h2M47 36h1M32 37h2M40 37h2M45 37h2M33 38h2M40 38h2M45 38h1M40 39h2M40 40h2M40 41h1M40 42h1M5 43h1M40 43h1M5 44h1M5 45h1M5 46h1M6 47h1M6 48h1M6 49h1M32 49h1M6 50h1M31 50h2M6 51h1M30 51h2M6 52h1M29 52h2M6 53h2M27 53h2M7 54h1M26 54h2M8 55h1M24 55h2M8 56h2M23 56h1M9 57h1" />
<path stroke="#d976c2" d="M45 2h7M38 3h4M44 3h2M37 4h2M37 5h1M53 5h1M55 5h1M56 7h1M57 8h1M59 10h2M60 11h1M60 12h1M60 13h2M25 16h1M24 17h2M23 18h2M23 19h2M23 20h1M33 26h2M34 27h2M35 28h2M36 29h2M37 30h1M37 31h2M38 32h1M29 33h1M39 33h1M49 33h1M29 34h2M39 34h1M41 34h2M49 34h1M39 35h1M41 35h1M48 35h1M39 36h1M46 36h1M8 37h2M34 37h2M42 37h1M44 37h1M8 38h1M35 38h1M44 38h1M7 39h2M7 40h1M7 41h1M39 41h1M6 42h2M39 42h1M6 43h1M38 43h2M6 44h1M38 44h2M6 45h1M37 45h2M6 46h1M37 46h1M5 47h1M33 47h1M5 48h1M32 48h1M7 49h1M31 49h1M7 50h1M30 50h1M7 51h1M29 51h1M7 52h2M28 52h1M8 53h2M8 54h3M25 54h1M9 55h3M10 56h1M22 56h1M10 57h1" />
<path stroke="#6f51da" d="M36 3h1" />
<path stroke="#7ec6cc" d="M42 3h1M39 4h1M43 4h1M36 5h1M35 6h1M34 7h1M33 8h1M32 9h1M31 10h1M30 11h1M29 12h1M28 13h1M27 14h1M59 19h1M25 20h1M59 20h1M23 21h2M58 21h2M23 22h1M57 22h2M57 23h1M19 24h1M30 24h1M56 24h1M15 25h2M19 25h2M31 25h2M55 25h2M14 26h1M17 26h2M32 26h1M55 26h1M13 27h1M16 27h1M33 27h1M54 27h1M12 28h1M15 28h1M52 28h2M11 29h2M52 29h1M10 30h2M36 30h1M50 30h2M9 31h2M49 31h3M8 32h2M48 32h3M8 33h2M38 33h1M48 33h1M7 34h2M36 34h1M38 34h1M47 34h2M6 35h3M36 35h1M38 35h1M46 35h2M5 36h1M7 36h1M36 36h1M45 36h1M4 37h1M36 37h1M39 37h1M43 37h1M4 38h1M6 38h1M36 38h1M39 38h1M42 38h2M3 39h2M6 39h1M36 39h1M39 39h1M3 40h1M6 40h1M36 40h1M39 40h1M2 41h2M5 41h2M36 41h1M2 42h2M5 42h1M36 42h1M2 43h1M4 43h1M35 43h2M4 44h1M35 44h1M37 44h1M2 45h1M4 45h1M34 45h2M2 46h1M4 46h1M34 46h1M2 47h1M4 47h1M36 47h1M2 48h1M4 48h1M35 48h1M5 49h1M34 49h1M5 50h1M33 50h1M3 51h1M32 51h1M31 52h2M4 53h1M31 53h1M5 54h1M5 55h2M6 56h1M11 56h2M7 57h2M12 57h2M24 57h2M8 58h2M10 59h5M16 60h4" />
<path stroke="#81d0f2" d="M43 3h1M40 4h3M38 5h3M36 6h4M35 7h4M34 8h4M33 9h3M32 10h3M31 11h3M30 12h3M29 13h3M28 14h3M27 15h3M26 16h2M26 17h2M25 18h2M25 19h1M24 20h1M60 20h1M60 21h1M59 22h1M58 23h1M18 24h1M20 24h2M57 24h2M17 25h2M30 25h1M57 25h1M15 26h2M56 26h2M14 27h2M32 27h1M55 27h2M13 28h2M33 28h2M54 28h2M13 29h3M34 29h2M53 29h2M12 30h3M34 30h2M52 30h2M11 31h2M35 31h2M52 31h1M10 32h2M36 32h2M51 32h2M10 33h1M36 33h2M50 33h2M9 34h1M37 34h1M50 34h1M37 35h1M6 36h1M8 36h1M37 36h2M5 37h3M37 37h2M5 38h1M37 38h2M5 39h1M37 39h2M4 40h2M37 40h2M4 41h1M37 41h2M4 42h1M37 42h2M3 43h1M37 43h1M2 44h2M36 44h1M3 45h1M36 45h1M3 46h1M35 46h2M3 47h1M34 47h2M3 48h1M33 48h2M3 49h2M33 49h1M3 50h2M4 51h2M4 52h2M5 53h1M29 53h2M6 54h1M28 54h3M7 55h1M26 55h3M7 56h1M24 56h3M11 57h1M21 57h3M10 58h15M15 59h8" />
<path stroke="#49348f" d="M53 3h1M44 6h6M41 7h2M49 7h5M39 8h2M52 8h3M38 9h2M53 9h3M37 10h2M54 10h3M35 11h3M55 11h2M35 12h1M56 12h2M61 12h1M34 13h1M56 13h2M33 14h1M56 14h2M32 15h1M57 15h2M31 16h1M57 16h2M30 17h2M57 17h2M57 18h2M29 19h1M57 19h2M58 20h1M28 21h1M28 22h1M28 23h1M28 24h2M27 25h2M60 25h1M27 26h2M27 27h2M20 28h2M21 29h1M58 29h1M57 30h1M56 31h1M56 32h1M31 33h1M54 33h1M35 34h1M53 34h1M35 35h1M49 37h1M48 38h1M45 39h2M45 40h1M1 43h1M7 45h1M1 46h1M32 46h1M31 47h1M7 48h1M8 51h1M11 54h1M3 55h1M13 56h1M18 56h1M5 57h1M6 58h1M17 62h1M19 62h1" />
<path stroke="rgba(67,49,138,0.9450980392156862)" d="M56 3h1" />
<path stroke="#7c75da" d="M44 4h7M47 5h5M50 6h2M53 6h1M54 7h1M55 8h2M56 9h2M57 10h1M57 11h2M58 12h1M58 13h2M58 14h2M59 15h2M59 16h2M59 17h3M59 18h3M60 19h1M25 21h1M24 22h2M23 23h3M22 24h4M21 25h5M19 26h1M22 26h4M19 27h1M23 27h3M18 28h1M23 28h3M16 29h3M23 29h4M15 30h2M23 30h4M13 31h3M24 31h3M12 32h3M24 32h4M11 33h3M25 33h4M10 34h3M25 34h4M9 35h3M26 35h4M9 36h2M28 36h3M30 37h2M40 44h1M39 45h2M38 46h2M37 47h2M36 48h3M2 49h1M35 49h3M2 50h1M34 50h3M2 51h1M33 51h3M3 52h1M33 52h2M3 53h1M32 53h2M4 54h1M31 54h2M4 55h1M29 55h3M5 56h1M27 56h4M6 57h1M26 57h4M7 58h1M25 58h4M8 59h2M23 59h4M10 60h6M20 60h5M12 61h11" />
<path stroke="#4a3290" d="M57 4h1" />
<path stroke="rgba(111,81,218,0.9882352941176471)" d="M33 5h1" />
<path stroke="#4a3690" d="M58 5h1" />
<path stroke="#6f4edb" d="M32 6h1M26 12h1" />
<path stroke="#6d50d8" d="M33 6h1M39 29h1M18 30h1M17 31h1M47 31h1M6 33h1M10 38h1M39 47h1M26 60h1" />
<path stroke="#6e4fd8" d="M32 7h1M26 13h1M25 14h1M5 34h1M29 39h1M2 52h1M24 61h1" />
<path stroke="#49348e" d="M43 7h1M30 18h1M59 28h1M30 29h1M33 32h1M55 32h1M34 35h1M52 35h1M2 39h1M2 40h1M46 40h1M7 43h1M1 47h1M30 48h1M23 54h1M13 55h1M15 56h1M17 56h1M12 62h1M15 62h2M18 62h1" />
<path stroke="#493590" d="M44 7h1M62 13h1M33 45h1" />
<path stroke="#6e4dd6" d="M30 8h1" />
<path stroke="#6d51d8" d="M28 10h1M11 27h1M9 29h1M14 34h1" />
<path stroke="#6d50d6" d="M27 11h1" />
<path stroke="#6d4fd7" d="M28 11h1M12 27h1M10 29h1M28 29h1M12 36h1M33 41h1M7 59h1M11 61h1" />
<path stroke="#4a358f" d="M54 11h1M62 15h2M62 16h2M63 17h1M63 18h1M63 19h1M63 20h1M56 21h1M63 21h1M55 22h2M63 22h1M55 23h2M62 23h1M54 24h2M62 24h1M53 25h2M61 25h1M52 26h3M61 26h1M51 27h3M41 44h1M31 48h1M39 48h1M30 49h1M28 50h2M38 50h1M28 51h1M37 51h2M26 52h2M36 52h2M25 53h2M35 53h2M24 54h1M34 54h2M22 55h2M33 55h2M14 56h1M20 56h2M32 56h2M14 57h7M31 57h2M29 58h2M28 59h2M27 60h2M25 61h2M24 62h1" />
<path stroke="#49338e" d="M61 11h1M55 12h1M56 20h1M1 44h1" />
<path stroke="#6d50d9" d="M27 12h1M19 22h1M10 61h1" />
<path stroke="#4a348f" d="M36 12h1M29 20h1M51 36h1M43 41h1M1 48h1M38 49h1M12 55h1M20 62h1M22 62h1" />
<path stroke="#4a338d" d="M62 12h1M32 33h1" />
<path stroke="rgba(111,80,211,0.9647058823529412)" d="M25 13h1" />
<path stroke="#4a348e" d="M35 13h1M54 34h1M1 41h1M27 51h1" />
<path stroke="#49358e" d="M55 13h1M34 14h1M40 46h1" />
<path stroke="#49338f" d="M62 14h1M7 44h1M16 56h1M14 62h1" />
<path stroke="#6c51d8" d="M24 15h1" />
<path stroke="#493490" d="M33 15h1M29 29h1M29 30h1M8 50h1M2 53h1M10 53h1" />
<path stroke="#48338f" d="M56 15h1M33 34h1M21 55h1M19 56h1" />
<path stroke="rgba(104,79,217,0.9450980392156862)" d="M23 16h1" />
<path stroke="#49358f" d="M32 16h1M57 20h1M57 21h1M50 37h1M49 38h1M33 46h1M32 47h1" />
<path stroke="rgba(111,81,220,0.9254901960784314)" d="M22 18h1" />
<path stroke="#6d4fd9" d="M22 19h1M22 20h1M14 25h1M22 30h1M41 33h1M24 34h1M13 35h1M11 36h1M25 36h1M35 52h1" />
<path stroke="#4a338f" d="M29 21h1M57 31h1M21 62h1" />
<path stroke="#6c4fd7" d="M20 22h1M11 37h1" />
<path stroke="#6d4ed8" d="M30 22h1M16 24h1M13 26h1M29 28h1M51 28h1M46 32h1M31 40h1M8 42h1" />
<path stroke="rgba(108,78,212,0.8901960784313725)" d="M16 23h1" />
<path stroke="#6d4fda" d="M17 23h1M39 28h1" />
<path stroke="rgba(0,0,254,0.12156862745098039)" d="M14 24h1M30 30h1" />
<path stroke="#6f50d9" d="M15 24h1" />
<path stroke="rgba(113,83,224,0.8745098039215686)" d="M13 25h1" />
<path stroke="#6e4ed8" d="M36 25h1M37 26h1M40 30h1M33 31h1M26 37h1" />
<path stroke="rgba(106,75,217,0.996078431372549)" d="M12 26h1" />
<path stroke="#48348e" d="M60 26h1M3 36h1M1 49h1M29 49h1M9 52h1M24 53h1M4 56h1" />
<path stroke="#6c4ed7" d="M38 27h1M27 38h1M41 43h1" />
<path stroke="#493390" d="M60 27h1" />
<path stroke="#6e4ed9" d="M10 28h1M16 32h1" />
<path stroke="#786bd9" d="M17 28h1" />
<path stroke="#6d4fd5" d="M50 28h1" />
<path stroke="#7d75da" d="M19 29h1M23 61h1" />
<path stroke="#7c74da" d="M20 29h1" />
<path stroke="rgba(113,86,220,0.9882352941176471)" d="M40 29h1" />
<path stroke="rgba(69,45,147,0.9686274509803922)" d="M59 29h1" />
<path stroke="#7a74db" d="M19 30h1" />
<path stroke="#493491" d="M31 30h1M23 62h1" />
<path stroke="#6e4ed7" d="M32 30h1" />
<path stroke="#493290" d="M58 30h1" />
<path stroke="#6e50d6" d="M7 31h1M9 40h1M1 51h1" />
<path stroke="#6e51d8" d="M22 31h1" />
<path stroke="#48358f" d="M30 31h1M1 40h1" />
<path stroke="#49318e" d="M32 31h1M9 51h1M4 57h1" />
<path stroke="rgba(112,76,215,0.9921568627450981)" d="M41 31h1" />
<path stroke="#6b50d8" d="M6 32h1" />
<path stroke="#493190" d="M31 32h1" />
<path stroke="#48358c" d="M5 33h1M4 34h1M3 35h2M2 37h2" />
<path stroke="#6d51d7" d="M15 33h1M34 42h1" />
<path stroke="#6e50d7" d="M23 33h1" />
<path stroke="#48358e" d="M34 33h1M34 34h1M44 41h1" />
<path stroke="#6d4fd6" d="M45 33h1" />
<path stroke="#48338d" d="M55 33h1" />
<path stroke="#6e50d8" d="M43 34h1M30 40h1" />
<path stroke="#473590" d="M53 35h1" />
<path stroke="#4a3391" d="M52 36h1" />
<path stroke="#4a378f" d="M51 37h1M6 59h1M11 62h1" />
<path stroke="#4b358e" d="M2 38h1" />
<path stroke="rgba(110,80,217,0.9764705882352941)" d="M10 39h1" />
<path stroke="#6b4fda" d="M28 39h1" />
<path stroke="#48348f" d="M47 39h1M1 45h1" />
<path stroke="#483390" d="M48 39h1" />
<path stroke="rgba(108,78,216,0.996078431372549)" d="M29 40h1" />
<path stroke="#986ce1" d="M41 41h1" />
<path stroke="rgba(70,53,143,0.9647058823529412)" d="M45 41h1" />
<path stroke="#4a338e" d="M1 42h1M7 46h1" />
<path stroke="#6e4cd9" d="M42 42h1" />
<path stroke="rgba(112,81,217,0.996078431372549)" d="M8 43h1" />
<path stroke="#49348d" d="M33 44h1" />
<path stroke="rgba(72,54,145,0.9764705882352941)" d="M41 45h1M1 52h1M25 52h1M22 54h1" />
<path stroke="#48338e" d="M7 47h1M13 62h1" />
<path stroke="rgba(74,49,142,0.984313725490196)" d="M40 47h1" />
<path stroke="#4a368e" d="M8 49h1" />
<path stroke="#6d4ed7" d="M1 50h1" />
<path stroke="rgba(76,51,149,0.996078431372549)" d="M2 54h1" />
<path stroke="rgba(69,52,144,0.996078431372549)" d="M12 54h1" />
<path stroke="#483691" d="M20 55h1" />
<path stroke="rgba(71,51,140,0.8549019607843137)" d="M3 56h1" />
<path stroke="#7b74da" d="M30 57h1" />
<path stroke="#47328f" d="M5 58h1" />
<path stroke="rgba(73,55,137,0.9568627450980393)" d="M7 60h1" />
<path stroke="#6e4fd7" d="M8 60h1" />
<path stroke="#6e51db" d="M9 61h1" />
</svg>