<svg xmlns="http://www.w3.org/2000/svg" viewBox="0 -0.5 64 64" shape-rendering="crispEdges">
<metadata>Made with Pixels to Svg https://codepen.io/shshaw/pen/XbxvNj</metadata>
<path stroke="#fea781" d="M21 0h8M15 1h20M13 2h24M11 3h9M24 3h15M10 4h9M26 4h14M9 5h8M27 5h15M8 6h8M27 6h16M7 7h8M27 7h18M6 8h9M27 8h19M5 9h9M26 9h22M5 10h9M26 10h21M4 11h10M25 11h24M4 12h10M25 12h25M3 13h12M24 13h27M3 14h13M22 14h29M2 15h50M2 16h51M2 17h7M13 17h40M2 18h6M13 18h1M15 18h39M1 19h6M14 19h41M1 20h5M14 20h24M43 20h13M1 21h5M15 21h22M45 21h12M1 22h5M15 22h21M45 22h12M1 23h4M16 23h20M46 23h12M1 24h4M16 24h19M46 24h12M1 25h4M16 25h19M46 25h12M1 26h4M16 26h19M46 26h12M1 27h4M16 27h20M46 27h13M1 28h5M16 28h20M46 28h13M1 29h5M15 29h21M46 29h12M2 30h5M14 30h23M46 30h12M2 31h5M13 31h25M45 31h13M2 32h6M12 32h28M44 32h13M2 33h54M2 34h53M2 35h51M3 36h11M19 36h32M3 37h10M20 37h30M3 38h10M20 38h28M4 39h8M21 39h27M4 40h8M21 40h27M4 41h8M22 41h25M5 42h7M23 42h24M5 43h8M23 43h24M6 44h7M23 44h24M6 45h7M23 45h24M7 46h7M22 46h8M35 46h12M8 47h6M22 47h7M37 47h10M9 48h6M21 48h7M38 48h9M10 49h7M19 49h8M39 49h8M11 50h16M40 50h7M12 51h15M40 51h7M12 52h15M40 52h6M13 53h15M40 53h6M14 54h15M39 54h6M16 55h14M38 55h7M17 56h15M36 56h8M20 57h18M39 57h4M22 58h20M24 59h17M29 60h8" />
<path stroke="#a46fc2" d="M20 3h4M19 4h2M24 4h2M17 5h2M25 5h2M16 6h2M26 6h1M15 7h2M26 7h1M15 8h1M26 8h1M14 9h1M25 9h1M14 10h1M25 10h1M14 11h1M24 11h1M14 12h2M23 12h2M15 13h2M22 13h2M16 14h6" />
<path stroke="#8465df" d="M21 4h3M19 5h6M18 6h8M17 7h9M16 8h10M15 9h10M15 10h10M15 11h9M16 12h7M17 13h5" />
<path stroke="#f57f66" d="M47 10h2M49 11h1M50 12h1M51 13h1M51 14h2M52 15h2M53 16h2M54 17h2M54 18h3M55 19h3M39 20h4M56 20h3M42 21h3M57 21h2M43 22h2M57 22h3M44 23h2M58 23h2M44 24h2M58 24h2M45 25h1M58 25h2M45 26h1M58 26h3M45 27h1M59 27h2M44 28h2M59 28h2M44 29h2M58 29h2M44 30h2M58 30h2M43 31h2M58 31h2M40 32h4M57 32h2M56 33h3M55 34h3M53 35h4M51 36h4M47 41h1M47 42h1M47 43h1M47 44h1M47 45h2M47 46h2M47 47h2M47 48h2M9 49h1M47 49h2M9 50h2M47 50h2M10 51h2M47 51h2M11 52h1M46 52h2M12 53h1M46 53h2M13 54h1M45 54h3M14 55h2M45 55h2M15 56h2M44 56h3M16 57h4M43 57h3M18 58h4M42 58h3M20 59h4M41 59h3M22 60h7M37 60h6M24 61h17M28 62h10" />
<path stroke="#f87f92" d="M9 17h2M8 18h1M12 18h1M7 19h2M13 19h1M6 20h2M13 20h1M6 21h1M14 21h1M6 22h1M14 22h1M5 23h1M15 23h1M5 24h1M15 24h1M5 25h1M15 25h1M5 26h1M15 26h1M5 27h1M15 27h1M6 28h1M14 28h2M6 29h1M13 29h2M7 30h1M12 30h2M7 31h2M12 31h1M8 32h4" />
<path stroke="#f88091" d="M11 17h1" />
<path stroke="#fea780" d="M12 17h1M38 57h1" />
<path stroke="#fda37f" d="M53 17h1" />
<path stroke="#ea6ec5" d="M9 18h3M9 19h4M8 20h5M7 21h7M7 22h7M6 23h9M6 24h9M6 25h9M6 26h9M6 27h9M7 28h7M7 29h6M8 30h4M9 31h3" />
<path stroke="#fea681" d="M14 18h1" />
<path stroke="#a4a9bf" d="M14 36h5M13 37h2M18 37h2M13 38h1M19 38h1M12 39h2M20 39h1M12 40h1M20 40h1M12 41h1M21 41h1M12 42h2M21 42h2M13 43h1M22 43h1M13 44h1M22 44h1M13 45h1M21 45h2M14 46h1M21 46h1M14 47h2M20 47h2M15 48h2M19 48h2M17 49h2" />
<path stroke="#76b7d6" d="M15 37h3M14 38h5M14 39h6M13 40h7M13 41h8M14 42h7M14 43h8M14 44h8M14 45h7M15 46h6M16 47h4M17 48h2" />
<path stroke="#f4bf85" d="M30 46h5M29 47h1M35 47h2M28 48h1M37 48h1M27 49h2M38 49h1M27 50h1M39 50h1M27 51h1M39 51h1M27 52h2M39 52h1M28 53h2M39 53h1M29 54h2M37 54h2M30 55h3M35 55h3M32 56h4" />
<path stroke="#ecd189" d="M30 47h5M29 48h8M29 49h9M28 50h11M28 51h11M29 52h10M30 53h9M31 54h6M33 55h2" />
</svg>